<?xml version="1.0" encoding="UTF-8" standalone="no"?>
<!-- Created with Inkscape (http://www.inkscape.org/) -->

<svg
   width="80mm"
   height="80mm"
   viewBox="0 0 80 80"
   version="1.1"
   id="svg5"
   inkscape:version="1.2.1 (9c6d41e, 2022-07-14)"
   sodipodi:docname="SanZu-AI.svg"
   xmlns:inkscape="http://www.inkscape.org/namespaces/inkscape"
   xmlns:sodipodi="http://sodipodi.sourceforge.net/DTD/sodipodi-0.dtd"
   xmlns="http://www.w3.org/2000/svg"
   xmlns:svg="http://www.w3.org/2000/svg">
  <sodipodi:namedview
     id="namedview7"
     pagecolor="#ffffff"
     bordercolor="#666666"
     borderopacity="1.0"
     inkscape:showpageshadow="2"
     inkscape:pageopacity="0.0"
     inkscape:pagecheckerboard="0"
     inkscape:deskcolor="#d1d1d1"
     inkscape:document-units="mm"
     showgrid="false"
     inkscape:zoom="0.27299786"
     inkscape:cx="-426.74327"
     inkscape:cy="73.260648"
     inkscape:window-width="1309"
     inkscape:window-height="456"
     inkscape:window-x="0"
     inkscape:window-y="25"
     inkscape:window-maximized="0"
     inkscape:current-layer="layer1" />
  <defs
     id="defs2" />
  <g
     inkscape:label="Layer 1"
     inkscape:groupmode="layer"
     id="layer1"
     transform="translate(0,-219.32723)">
    <path
       style="fill:#1a1a1a;stroke:#000000;stroke-width:0.264583px;stroke-linecap:butt;stroke-linejoin:miter;stroke-opacity:1"
       d="m 7.9644268,298.0355 c 0,0 12.8438902,-6.81806 17.9563872,-16.06624 5.112497,-9.24818 -1.657007,-27.64967 6.615512,-38.748 8.272519,-11.09833 39.108366,-23.99921 39.220526,-19.37399 0.11216,4.62523 -30.714868,28.35219 -30.714868,28.35219 0,0 30.813778,-17.96366 30.714868,-12.28595 -0.0989,5.67771 -34.022623,29.7698 -34.022623,29.7698 0,0 34.628373,-18.49252 34.228043,-13.54328 -0.40033,4.94923 -21.65968,23.43149 -35.173116,31.49967 -8.769857,5.23603 -28.8247292,10.3958 -28.8247292,10.3958 z"
       id="path292"
       sodipodi:nodetypes="czzzczczac" />
    <path
       style="fill:#f9f9f9;stroke:#000000;stroke-width:0.8;stroke-linecap:butt;stroke-linejoin:miter;stroke-opacity:1;stroke-dasharray:none"
       d="m 8.003516,298.0435 c 0,0 7.663571,-9.08445 12.776068,-18.33263 5.112497,-9.24818 -1.657007,-27.64967 6.615512,-38.748 8.272519,-11.09833 39.108365,-23.99921 39.220525,-19.37399 0.11216,4.62523 -30.714867,28.35219 -30.714867,28.35219 0,0 30.813777,-17.96366 30.714867,-12.28595 -0.0989,5.67771 -34.022622,29.7698 -34.022622,29.7698 0,0 34.628372,-18.49252 34.228042,-13.54328 -0.40033,4.94923 -22.28198,22.47042 -35.173115,31.49967 -7.322868,5.12911 -23.64441,12.66219 -23.64441,12.66219 z"
       id="path397"
       sodipodi:nodetypes="czzzczczac" />
  </g>
</svg>
